<svg width="32" height="32" viewBox="0 0 32 32" fill="none" xmlns="http://www.w3.org/2000/svg">
<g clip-path="url(#clip0_50_58)">
<path d="M26.559 0H5.44102C2.43603 0 0 2.43603 0 5.44102V26.559C0 29.564 2.43603 32 5.44102 32H26.559C29.564 32 32 29.564 32 26.559V5.44102C32 2.43603 29.564 0 26.559 0Z" fill="url(#paint0_linear_50_58)"></path>
<path d="M12.0784 8.79099C11.6643 8.2954 11.0935 7.95664 10.4599 7.82699L7.05976 7.13693C6.15013 6.95292 5.52071 8.02147 6.12295 8.72616L12.9044 16.664C13.2619 17.0822 13.4585 17.6154 13.4585 18.1654V25.5323C13.4585 26.0488 14.0649 26.3269 14.456 25.9923L17.0531 23.7695C17.5612 23.3345 17.854 22.6988 17.854 22.0297V17.584C17.854 16.3377 17.4128 15.1312 16.6119 14.1776L12.0784 8.79308V8.79099Z" fill="white"></path>
<path d="M25.328 7.56566L22.8041 7.76641C22.1098 7.79359 20.8426 9.32636 20.3972 9.8575L17.5889 13.0234C17.2752 13.4918 17.6181 14.1212 18.1827 14.1066L20.2592 14.0564C21.0475 14.0376 21.7899 13.6842 22.3001 13.082L25.9323 8.80986C26.3568 8.308 25.9825 7.54057 25.3259 7.56566H25.328Z" fill="white"></path>
</g>
<defs>
<linearGradient id="paint0_linear_50_58" x1="3.02163" y1="9.73613" x2="31.8411" y2="23.6461" gradientUnits="userSpaceOnUse">
<stop stop-color="#05B8CE"></stop>
<stop offset="0.67" stop-color="#24D7CB"></stop>
<stop offset="1" stop-color="#26D4A3"></stop>
</linearGradient>
<clipPath id="clip0_50_58">
<rect width="32" height="32" fill="white"></rect>
</clipPath>
</defs>
</svg>